<?xml version="1.0" encoding="UTF-8"?>
<!DOCTYPE svg PUBLIC "-//W3C//DTD SVG 1.1//EN" "http://www.w3.org/Graphics/SVG/1.1/DTD/svg11.dtd">
<svg xmlns="http://www.w3.org/2000/svg" version="1.1" width="500px" height="500px" style="shape-rendering:geometricPrecision; text-rendering:geometricPrecision; image-rendering:optimizeQuality; fill-rule:evenodd; clip-rule:evenodd" xmlns:xlink="http://www.w3.org/1999/xlink">
<g><path style="opacity:0.999" fill="#ffda66" d="M 361.5,198.5 C 361.427,200.027 362.094,201.027 363.5,201.5C 368.159,204.188 368.992,207.521 366,211.5C 363.984,209.316 361.817,207.316 359.5,205.5C 357.076,206.423 355.076,207.923 353.5,210C 351.393,210.854 350.059,210.188 349.5,208C 349.639,206.699 350.305,205.866 351.5,205.5C 352.906,205.027 353.573,204.027 353.5,202.5C 354.614,201.115 355.614,199.615 356.5,198C 358.387,197.22 360.054,197.387 361.5,198.5 Z"/></g>
<g><path style="opacity:0.478" fill="#ffeeb8" d="M 361.5,198.5 C 362.906,198.973 363.573,199.973 363.5,201.5C 362.094,201.027 361.427,200.027 361.5,198.5 Z"/></g>
<g><path style="opacity:0.564" fill="#ffedb5" d="M 97.5,211.5 C 96.9569,211.44 96.6236,211.107 96.5,210.5C 98.5589,209.049 99.5589,207.049 99.5,204.5C 94.8333,204.5 90.1667,204.5 85.5,204.5C 85.9704,203.307 86.9704,202.64 88.5,202.5C 92.6237,203.297 96.6237,203.63 100.5,203.5C 100.856,206.776 99.856,209.443 97.5,211.5 Z"/></g>
<g><path style="opacity:0.488" fill="#ffedb4" d="M 116.5,209.5 C 117.968,208.221 118.635,206.554 118.5,204.5C 114.5,204.5 110.5,204.5 106.5,204.5C 106.5,206.167 106.5,207.833 106.5,209.5C 105.711,209.217 105.044,208.717 104.5,208C 104.616,206.732 104.949,205.398 105.5,204C 109.753,203.8 113.92,203.3 118,202.5C 119.352,204.594 119.852,206.927 119.5,209.5C 118.5,209.5 117.5,209.5 116.5,209.5 Z"/></g>
<g><path style="opacity:0.997" fill="#ffd655" d="M 253.5,205.5 C 253.5,208.833 253.5,212.167 253.5,215.5C 251.833,215.5 250.167,215.5 248.5,215.5C 248.784,213.585 248.451,211.919 247.5,210.5C 247.158,209.662 246.492,209.328 245.5,209.5C 236.145,209.693 231.812,214.526 232.5,224C 231.966,234.633 236.966,239.133 247.5,237.5C 248.461,235.735 248.795,233.735 248.5,231.5C 250.5,231.5 252.5,231.5 254.5,231.5C 255.124,231.917 255.457,232.584 255.5,233.5C 254.969,236.735 254.302,239.902 253.5,243C 229.345,248.178 219.845,238.678 225,214.5C 225.608,212.934 226.442,211.6 227.5,210.5C 229.167,209.5 230.5,208.167 231.5,206.5C 238.629,201.597 245.962,201.263 253.5,205.5 Z"/></g>
<g><path style="opacity:0.996" fill="#ffd655" d="M 85.5,204.5 C 90.1667,204.5 94.8333,204.5 99.5,204.5C 99.5589,207.049 98.5589,209.049 96.5,210.5C 96.6236,211.107 96.9569,211.44 97.5,211.5C 99.1417,214.102 100.808,216.769 102.5,219.5C 104.42,216.661 106.087,213.661 107.5,210.5C 107.376,209.893 107.043,209.56 106.5,209.5C 106.5,207.833 106.5,206.167 106.5,204.5C 110.5,204.5 114.5,204.5 118.5,204.5C 118.635,206.554 117.968,208.221 116.5,209.5C 113.151,215.535 109.818,221.535 106.5,227.5C 105.518,230.962 105.185,234.629 105.5,238.5C 107.167,238.5 108.833,238.5 110.5,238.5C 110.598,240.215 110.598,242.049 110.5,244C 106.286,243.629 102.119,243.796 98,244.5C 96.5,244.333 95,244.167 93.5,244C 93.0426,243.586 92.7093,243.086 92.5,242.5C 93.7111,241.28 93.7111,240.113 92.5,239C 93.9047,237.731 95.5714,237.231 97.5,237.5C 97.0969,226.359 93.0969,216.692 85.5,208.5C 84.2947,207.005 84.2947,205.672 85.5,204.5 Z"/></g>
<g><path style="opacity:0.369" fill="#fff0c3" d="M 353.5,202.5 C 353.573,204.027 352.906,205.027 351.5,205.5C 351.427,203.973 352.094,202.973 353.5,202.5 Z"/></g>
<g><path style="opacity:0.659" fill="#ffecad" d="M 231.5,206.5 C 230.5,208.167 229.167,209.5 227.5,210.5C 227.833,208.167 229.167,206.833 231.5,206.5 Z"/></g>
<g><path style="opacity:0.004" fill="#fffbf1" d="M 245.5,209.5 C 246.492,209.328 247.158,209.662 247.5,210.5C 247.5,212.5 247.5,214.5 247.5,216.5C 246.732,214.285 246.065,211.952 245.5,209.5 Z"/></g>
<g><path style="opacity:0.794" fill="#ffe798" d="M 253.5,205.5 C 254.482,208.962 254.815,212.629 254.5,216.5C 251.959,217.103 249.626,217.103 247.5,216.5C 247.5,214.5 247.5,212.5 247.5,210.5C 248.451,211.919 248.784,213.585 248.5,215.5C 250.167,215.5 251.833,215.5 253.5,215.5C 253.5,212.167 253.5,208.833 253.5,205.5 Z"/></g>
<g><path style="opacity:0.999" fill="#ffd550" d="M 122.5,247.5 C 123.78,246.069 125.447,245.402 127.5,245.5C 126.916,248.285 127.916,249.952 130.5,250.5C 132.903,250.552 135.236,250.219 137.5,249.5C 138.496,249.586 139.329,249.252 140,248.5C 140.494,246.866 140.66,245.199 140.5,243.5C 140.649,242.448 140.483,241.448 140,240.5C 136.437,243.181 132.604,243.848 128.5,242.5C 128.027,241.094 127.027,240.427 125.5,240.5C 123.016,238.88 121.516,236.547 121,233.5C 118.803,224.059 121.97,217.226 130.5,213C 136.204,212.313 141.87,212.479 147.5,213.5C 147.667,225.171 147.5,236.838 147,248.5C 145.833,252.333 143.333,254.833 139.5,256C 134.833,256.667 130.167,256.667 125.5,256C 123.714,255.804 122.381,254.971 121.5,253.5C 121.465,251.557 121.798,249.557 122.5,247.5 Z M 138.5,218.5 C 139.117,218.611 139.617,218.944 140,219.5C 140.957,224.857 140.457,230.024 138.5,235C 136.655,236.128 134.655,236.628 132.5,236.5C 131.833,235.167 130.833,234.167 129.5,233.5C 128.17,229.797 128.336,226.13 130,222.5C 130.377,221.058 131.21,220.058 132.5,219.5C 134.435,218.85 136.435,218.517 138.5,218.5 Z"/></g>
<g><path style="opacity:0.998" fill="#ffd654" d="M 177.5,216.5 C 177.427,218.027 178.094,219.027 179.5,219.5C 182.509,228.233 180.842,236.066 174.5,243C 160.623,247.902 153.29,243.069 152.5,228.5C 152.592,224.776 153.592,221.442 155.5,218.5C 156.833,217.833 157.833,216.833 158.5,215.5C 162.662,212.64 167.328,211.807 172.5,213C 174.584,213.697 176.251,214.864 177.5,216.5 Z M 162.5,236.5 C 162.125,234.302 161.458,232.302 160.5,230.5C 160.648,226.739 161.648,223.239 163.5,220C 167.207,217.791 170.04,218.624 172,222.5C 172.879,227.287 172.545,231.953 171,236.5C 168.093,239.115 165.26,239.115 162.5,236.5 Z"/></g>
<g><path style="opacity:0.993" fill="#ffd651" d="M 207.5,213.5 C 207.5,216.5 207.5,219.5 207.5,222.5C 206.167,222.5 204.833,222.5 203.5,222.5C 203.343,218.727 201.676,217.727 198.5,219.5C 197.386,220.885 196.386,222.385 195.5,224C 196.266,227.418 196.266,230.918 195.5,234.5C 195.5,235.833 195.5,237.167 195.5,238.5C 196.833,238.5 198.167,238.5 199.5,238.5C 200.788,240.035 200.788,241.701 199.5,243.5C 198.554,243.987 197.554,244.32 196.5,244.5C 192.488,243.439 188.488,243.272 184.5,244C 183.193,242.057 183.193,240.223 184.5,238.5C 185.833,238.5 187.167,238.5 188.5,238.5C 188.823,231.978 188.49,225.645 187.5,219.5C 186.791,218.596 185.791,218.263 184.5,218.5C 184.5,216.833 184.5,215.167 184.5,213.5C 187.08,212.867 189.747,212.534 192.5,212.5C 193.799,213.09 194.632,214.09 195,215.5C 198.872,212.462 203.039,211.795 207.5,213.5 Z"/></g>
<g><path style="opacity:0.999" fill="#ffd75a" d="M 268.5,212.5 C 280.476,210.484 286.809,215.484 287.5,227.5C 286.152,243.341 278.152,248.174 263.5,242C 257.914,234.727 257.081,226.894 261,218.5C 263.114,215.879 265.614,213.879 268.5,212.5 Z M 275.5,238.5 C 273.435,238.483 271.435,238.15 269.5,237.5C 266.919,231.639 266.919,225.806 269.5,220C 273.351,217.503 276.184,218.337 278,222.5C 279.249,228.282 278.415,233.615 275.5,238.5 Z"/></g>
<g><path style="opacity:0.993" fill="#ffd758" d="M 301.5,215.5 C 303.027,215.573 304.027,214.906 304.5,213.5C 307.731,212.218 311.064,212.218 314.5,213.5C 314.5,216.5 314.5,219.5 314.5,222.5C 312.833,222.5 311.167,222.5 309.5,222.5C 309.592,218.929 307.926,217.762 304.5,219C 303.944,219.383 303.611,219.883 303.5,220.5C 302.841,222.138 302.174,223.805 301.5,225.5C 302.806,229.365 302.806,233.198 301.5,237C 306.862,236.516 308.529,238.683 306.5,243.5C 301.199,243.323 295.866,243.657 290.5,244.5C 290.205,242.265 290.539,240.265 291.5,238.5C 292.5,238.5 293.5,238.5 294.5,238.5C 294.823,231.978 294.49,225.645 293.5,219.5C 289.527,218.925 288.527,216.758 290.5,213C 293.5,212.333 296.5,212.333 299.5,213C 300.066,213.995 300.733,214.828 301.5,215.5 Z"/></g>
<g><path style="opacity:0.995" fill="#ffd447" d="M 327.5,213.5 C 327.343,214.873 327.51,216.207 328,217.5C 328.717,216.956 329.217,216.289 329.5,215.5C 330.058,214.21 331.058,213.377 332.5,213C 335.696,212.195 338.696,212.362 341.5,213.5C 341.5,216.5 341.5,219.5 341.5,222.5C 339.833,222.5 338.167,222.5 336.5,222.5C 336.737,221.209 336.404,220.209 335.5,219.5C 332.911,219.461 330.911,220.461 329.5,222.5C 328.512,227.64 328.179,232.974 328.5,238.5C 330.167,238.5 331.833,238.5 333.5,238.5C 334.139,239.097 334.472,239.93 334.5,241C 334.316,242.376 333.649,243.209 332.5,243.5C 327.833,243.5 323.167,243.5 318.5,243.5C 318.366,241.708 318.699,240.042 319.5,238.5C 321.459,232.25 322.126,225.584 321.5,218.5C 320.167,218.5 318.833,218.5 317.5,218.5C 316.549,217.081 316.216,215.415 316.5,213.5C 320.416,213.296 324.082,213.296 327.5,213.5 Z"/></g>
<g><path style="opacity:0.999" fill="#ffd757" d="M 367.5,214.5 C 367.427,216.027 368.094,217.027 369.5,217.5C 371.406,225.629 368.072,230.295 359.5,231.5C 357.5,231.5 355.5,231.5 353.5,231.5C 353.232,233.099 353.566,234.432 354.5,235.5C 358.735,238.106 363.068,238.106 367.5,235.5C 371.904,239.463 371.237,242.296 365.5,244C 363.5,244.167 361.5,244.333 359.5,244.5C 356.473,244.713 353.807,244.047 351.5,242.5C 351.027,241.094 350.027,240.427 348.5,240.5C 347.4,239.395 346.733,238.062 346.5,236.5C 346.5,232.167 346.5,227.833 346.5,223.5C 346.461,220.911 347.461,218.911 349.5,217.5C 350.833,216.833 351.833,215.833 352.5,214.5C 354.634,212.967 357.134,212.3 360,212.5C 362.866,212.3 365.366,212.967 367.5,214.5 Z M 361.5,218.5 C 362.301,220.042 362.634,221.708 362.5,223.5C 353.691,227.371 352.025,225.871 357.5,219C 358.793,218.51 360.127,218.343 361.5,218.5 Z"/></g>
<g><path style="opacity:0.998" fill="#ffd44a" d="M 400.5,214.5 C 400.5,222.5 400.5,230.5 400.5,238.5C 401.833,238.5 403.167,238.5 404.5,238.5C 404.5,240.167 404.5,241.833 404.5,243.5C 400.958,243.813 397.625,243.479 394.5,242.5C 394.214,240.067 393.548,240.067 392.5,242.5C 392.389,243.117 392.056,243.617 391.5,244C 385.306,245.711 380.14,244.211 376,239.5C 375.517,238.552 375.351,237.552 375.5,236.5C 375.5,231.833 375.5,227.167 375.5,222.5C 375.654,220.03 376.654,218.03 378.5,216.5C 380.027,216.573 381.027,215.906 381.5,214.5C 381.918,213.778 382.584,213.278 383.5,213C 385.833,212.833 388.167,212.667 390.5,212.5C 394.141,212.315 397.474,212.981 400.5,214.5 Z M 392.5,218.5 C 393.452,224.075 393.786,229.741 393.5,235.5C 392.167,236.167 391.167,237.167 390.5,238.5C 388.435,238.483 386.435,238.15 384.5,237.5C 381.616,231.5 381.949,225.667 385.5,220C 387.677,218.798 390.011,218.298 392.5,218.5 Z"/></g>
<g><path style="opacity:0.655" fill="#ffedb5" d="M 304.5,213.5 C 304.027,214.906 303.027,215.573 301.5,215.5C 301.973,214.094 302.973,213.427 304.5,213.5 Z"/></g>
<g><path style="opacity:0.21" fill="#fff2c8" d="M 327.5,213.5 C 328.167,214.167 328.833,214.833 329.5,215.5C 329.217,216.289 328.717,216.956 328,217.5C 327.51,216.207 327.343,214.873 327.5,213.5 Z"/></g>
<g><path style="opacity:0.518" fill="#ffefbc" d="M 352.5,214.5 C 351.833,215.833 350.833,216.833 349.5,217.5C 349.5,215.5 350.5,214.5 352.5,214.5 Z"/></g>
<g><path style="opacity:0.631" fill="#ffeeb7" d="M 381.5,214.5 C 381.027,215.906 380.027,216.573 378.5,216.5C 378.973,215.094 379.973,214.427 381.5,214.5 Z"/></g>
<g><path style="opacity:0.39" fill="#fff0bd" d="M 400.5,214.5 C 401.492,221.982 401.825,229.648 401.5,237.5C 402.791,237.263 403.791,237.596 404.5,238.5C 403.167,238.5 401.833,238.5 400.5,238.5C 400.5,230.5 400.5,222.5 400.5,214.5 Z"/></g>
<g><path style="opacity:0.553" fill="#ffeaa8" d="M 367.5,214.5 C 368.906,214.973 369.573,215.973 369.5,217.5C 368.094,217.027 367.427,216.027 367.5,214.5 Z"/></g>
<g><path style="opacity:0.627" fill="#ffe99f" d="M 138.5,218.5 C 136.435,218.517 134.435,218.85 132.5,219.5C 133.134,218.053 134.301,217.387 136,217.5C 137.07,217.528 137.903,217.861 138.5,218.5 Z"/></g>
<g><path style="opacity:0.416" fill="#fff0be" d="M 158.5,215.5 C 157.833,216.833 156.833,217.833 155.5,218.5C 155.5,216.5 156.5,215.5 158.5,215.5 Z"/></g>
<g><path style="opacity:0.259" fill="#fff2c9" d="M 177.5,216.5 C 178.906,216.973 179.573,217.973 179.5,219.5C 178.094,219.027 177.427,218.027 177.5,216.5 Z"/></g>
<g><path style="opacity:0.078" fill="#fff5d4" d="M 184.5,213.5 C 184.5,215.167 184.5,216.833 184.5,218.5C 185.791,218.263 186.791,218.596 187.5,219.5C 186.167,219.5 184.833,219.5 183.5,219.5C 183.205,217.265 183.539,215.265 184.5,213.5 Z"/></g>
<g><path style="opacity:0.004" fill="#fffdf8" d="M 317.5,218.5 C 318.833,218.5 320.167,218.5 321.5,218.5C 322.126,225.584 321.459,232.25 319.5,238.5C 319.167,238.5 318.833,238.5 318.5,238.5C 320.393,232.455 321.06,226.121 320.5,219.5C 319.209,219.737 318.209,219.404 317.5,218.5 Z"/></g>
<g><path style="opacity:0.691" fill="#fee387" d="M 392.5,218.5 C 393.814,220.915 394.481,223.748 394.5,227C 394.498,230.021 394.164,232.854 393.5,235.5C 393.786,229.741 393.452,224.075 392.5,218.5 Z"/></g>
<g><path style="opacity:0.474" fill="#ffeeb8" d="M 187.5,219.5 C 188.49,225.645 188.823,231.978 188.5,238.5C 187.167,238.5 185.833,238.5 184.5,238.5C 185.263,237.732 186.263,237.232 187.5,237C 187.369,231.318 187.369,225.484 187.5,219.5 Z"/></g>
<g><path style="opacity:0.818" fill="#ffe286" d="M 207.5,213.5 C 208.479,216.625 208.813,219.958 208.5,223.5C 206.5,223.833 204.5,224.167 202.5,224.5C 203.244,221.05 201.91,219.384 198.5,219.5C 201.676,217.727 203.343,218.727 203.5,222.5C 204.833,222.5 206.167,222.5 207.5,222.5C 207.5,219.5 207.5,216.5 207.5,213.5 Z"/></g>
<g><path style="opacity:0.156" fill="#fff7e0" d="M 293.5,219.5 C 294.49,225.645 294.823,231.978 294.5,238.5C 293.5,238.5 292.5,238.5 291.5,238.5C 293.393,232.455 294.06,226.121 293.5,219.5 Z"/></g>
<g><path style="opacity:0.118" fill="#fff0c1" d="M 361.5,218.5 C 362.649,218.791 363.316,219.624 363.5,221C 363.472,222.07 363.139,222.903 362.5,223.5C 362.634,221.708 362.301,220.042 361.5,218.5 Z"/></g>
<g><path style="opacity:0.639" fill="#ffeeb9" d="M 314.5,213.5 C 315.806,216.687 315.806,220.02 314.5,223.5C 310.601,225.443 308.268,224.276 307.5,220C 306.181,219.805 304.847,219.972 303.5,220.5C 303.611,219.883 303.944,219.383 304.5,219C 307.926,217.762 309.592,218.929 309.5,222.5C 311.167,222.5 312.833,222.5 314.5,222.5C 314.5,219.5 314.5,216.5 314.5,213.5 Z"/></g>
<g><path style="opacity:0.675" fill="#ffecb1" d="M 341.5,213.5 C 342.479,216.625 342.813,219.958 342.5,223.5C 340.488,224.014 338.488,224.18 336.5,224C 335.62,222.644 335.286,221.144 335.5,219.5C 336.404,220.209 336.737,221.209 336.5,222.5C 338.167,222.5 339.833,222.5 341.5,222.5C 341.5,219.5 341.5,216.5 341.5,213.5 Z"/></g>
<g><path style="opacity:0.218" fill="#fff6da" d="M 329.5,222.5 C 329.5,227.5 329.5,232.5 329.5,237.5C 331.099,237.232 332.432,237.566 333.5,238.5C 331.833,238.5 330.167,238.5 328.5,238.5C 328.179,232.974 328.512,227.64 329.5,222.5 Z"/></g>
<g><path style="opacity:0.155" fill="#fff7dd" d="M 106.5,227.5 C 106.5,230.833 106.5,234.167 106.5,237.5C 108.099,237.232 109.432,237.566 110.5,238.5C 108.833,238.5 107.167,238.5 105.5,238.5C 105.185,234.629 105.518,230.962 106.5,227.5 Z"/></g>
<g><path style="opacity:0.859" fill="#ffe9a2" d="M 346.5,223.5 C 346.5,227.833 346.5,232.167 346.5,236.5C 343.991,232.186 343.991,227.852 346.5,223.5 Z"/></g>
<g><path style="opacity:0.914" fill="#ffe79d" d="M 375.5,222.5 C 375.5,227.167 375.5,231.833 375.5,236.5C 373.046,231.865 373.046,227.198 375.5,222.5 Z"/></g>
<g><path style="opacity:0.118" fill="#fff8e4" d="M 254.5,231.5 C 252.5,231.5 250.5,231.5 248.5,231.5C 248.795,233.735 248.461,235.735 247.5,237.5C 247.5,235.167 247.5,232.833 247.5,230.5C 250.059,230.198 252.393,230.532 254.5,231.5 Z"/></g>
<g><path style="opacity:0.267" fill="#fff8e4" d="M 359.5,231.5 C 358.469,232.249 357.302,232.915 356,233.5C 355.667,233.167 355.333,232.833 355,232.5C 354.517,233.448 354.351,234.448 354.5,235.5C 353.566,234.432 353.232,233.099 353.5,231.5C 355.5,231.5 357.5,231.5 359.5,231.5 Z"/></g>
<g><path style="opacity:0.569" fill="#fff1c6" d="M 129.5,233.5 C 130.833,234.167 131.833,235.167 132.5,236.5C 130.5,236.5 129.5,235.5 129.5,233.5 Z"/></g>
<g><path style="opacity:0.82" fill="#ffeaa7" d="M 160.5,230.5 C 161.458,232.302 162.125,234.302 162.5,236.5C 160.72,235.01 160.054,233.01 160.5,230.5 Z"/></g>
<g><path style="opacity:0.004" fill="#fefffe" d="M 195.5,234.5 C 196.404,235.209 196.737,236.209 196.5,237.5C 197.791,237.263 198.791,237.596 199.5,238.5C 198.167,238.5 196.833,238.5 195.5,238.5C 195.5,237.167 195.5,235.833 195.5,234.5 Z"/></g>
<g><path style="opacity:0.663" fill="#ffebab" d="M 393.5,235.5 C 393.5,237.5 392.5,238.5 390.5,238.5C 391.167,237.167 392.167,236.167 393.5,235.5 Z"/></g>
<g><path style="opacity:0.525" fill="#ffeba8" d="M 269.5,237.5 C 271.435,238.15 273.435,238.483 275.5,238.5C 274.903,239.139 274.07,239.472 273,239.5C 271.301,239.613 270.134,238.947 269.5,237.5 Z"/></g>
<g><path style="opacity:0.443" fill="#ffedb4" d="M 384.5,237.5 C 386.435,238.15 388.435,238.483 390.5,238.5C 389.903,239.139 389.07,239.472 388,239.5C 386.301,239.613 385.134,238.947 384.5,237.5 Z"/></g>
<g><path style="opacity:0.625" fill="#fff1c5" d="M 318.5,238.5 C 318.833,238.5 319.167,238.5 319.5,238.5C 318.699,240.042 318.366,241.708 318.5,243.5C 323.167,243.5 327.833,243.5 332.5,243.5C 327.695,244.487 322.695,244.821 317.5,244.5C 317.714,242.856 317.38,241.356 316.5,240C 317.044,239.283 317.711,238.783 318.5,238.5 Z"/></g>
<g><path style="opacity:0.671" fill="#ffedb6" d="M 348.5,240.5 C 350.027,240.427 351.027,241.094 351.5,242.5C 349.973,242.573 348.973,241.906 348.5,240.5 Z"/></g>
<g><path style="opacity:0.125" fill="#fff5d7" d="M 125.5,240.5 C 127.027,240.427 128.027,241.094 128.5,242.5C 126.973,242.573 125.973,241.906 125.5,240.5 Z"/></g>
<g><path style="opacity:0.004" fill="#fff6db" d="M 394.5,242.5 C 393.833,242.5 393.167,242.5 392.5,242.5C 393.548,240.067 394.214,240.067 394.5,242.5 Z"/></g>
<g><path style="opacity:0.731" fill="#ffeaa8" d="M 130.5,250.5 C 127.916,249.952 126.916,248.285 127.5,245.5C 125.447,245.402 123.78,246.069 122.5,247.5C 121.226,246.811 121.226,245.977 122.5,245C 124.473,244.505 126.473,244.338 128.5,244.5C 128.253,246.858 128.919,248.858 130.5,250.5 Z"/></g>
<g><path style="opacity:0.957" fill="#ffe593" d="M 140.5,243.5 C 140.66,245.199 140.494,246.866 140,248.5C 139.329,249.252 138.496,249.586 137.5,249.5C 138.799,247.588 139.799,245.588 140.5,243.5 Z"/></g>
</svg>
